<?xml version="1.0" encoding="utf-8"?>
<!-- Generator: Adobe Illustrator 16.0.0, SVG Export Plug-In . SVG Version: 6.00 Build 0)  -->
<!DOCTYPE svg PUBLIC "-//W3C//DTD SVG 1.1//EN" "http://www.w3.org/Graphics/SVG/1.1/DTD/svg11.dtd">
<svg version="1.1" id="Calque_1" xmlns="http://www.w3.org/2000/svg" xmlns:xlink="http://www.w3.org/1999/xlink" x="0px" y="0px"
	 width="508.605px" height="510.051px" viewBox="0 0 508.605 510.051" enable-background="new 0 0 508.605 510.051"
	 xml:space="preserve">
<g>
	<path fill="#327AB8" stroke="#FFFFFF" stroke-width="111" stroke-miterlimit="10" d="M382.046,192.686c0-72.78-59.222-132-132-132
		c-72.779,0-132,59.22-132,132c0,72.779,59.22,132,132,132C322.825,324.686,382.046,265.465,382.046,192.686z"/>
	<path fill="#327AB8" stroke="#FFFFFF" stroke-width="111" stroke-miterlimit="10" d="M115.046,270.506l-55.38,96.18
		c-2.46,4.201-2.101,9.48,0.84,13.32c3,3.84,7.92,5.58,12.66,4.26l70.439-18.899l18.78,70.44c1.2,4.681,5.16,8.158,9.96,8.818
		c0.54,0.062,1.08,0.062,1.62,0.062c4.26,0,8.22-2.279,10.38-6l52.38-90.661C184.706,343.586,139.946,313.525,115.046,270.506z"/>
	<path fill="#327AB8" stroke="#FFFFFF" stroke-width="111" stroke-miterlimit="10" d="M440.426,366.686l-55.38-96.18
		c-24.9,43.02-69.66,73.08-121.74,77.52l52.438,90.66c2.16,3.722,6.12,6,10.382,6c0.479,0,1.02,0,1.56-0.118
		c4.8-0.603,8.76-4.08,10.02-8.761l18.722-70.5l70.5,18.959c4.68,1.26,9.66-0.42,12.6-4.26
		C442.526,376.166,442.825,370.887,440.426,366.686z"/>
</g>
<g>
	<path fill="#327AB8" d="M382.046,192.686c0-72.78-59.222-132-132-132c-72.779,0-132,59.22-132,132c0,72.779,59.22,132,132,132
		C322.825,324.686,382.046,265.465,382.046,192.686z"/>
	<path fill="#327AB8" d="M115.046,270.506l-55.38,96.18c-2.46,4.201-2.101,9.48,0.84,13.32c3,3.84,7.92,5.58,12.66,4.26
		l70.439-18.899l18.78,70.44c1.2,4.681,5.16,8.158,9.96,8.818c0.54,0.062,1.08,0.062,1.62,0.062c4.26,0,8.22-2.279,10.38-6
		l52.38-90.661C184.706,343.586,139.946,313.525,115.046,270.506z"/>
	<path fill="#327AB8" d="M440.426,366.686l-55.38-96.18c-24.9,43.02-69.66,73.08-121.74,77.52l52.438,90.66
		c2.16,3.722,6.12,6,10.382,6c0.479,0,1.02,0,1.56-0.118c4.8-0.603,8.76-4.08,10.02-8.761l18.722-70.5l70.5,18.959
		c4.68,1.26,9.66-0.42,12.6-4.26C442.526,376.166,442.825,370.887,440.426,366.686z"/>
</g>
<g>
	<path fill="#FFFFFF" d="M284.821,128.324c10.349,6.047,18.545,14.325,24.591,24.839c6.043,10.518,9.065,22.231,9.065,35.147v55.391
		c0,3.643-1.203,6.667-3.601,9.065c-2.403,2.403-5.427,3.602-9.067,3.602c-3.645,0-6.667-1.198-9.065-3.602
		c-2.401-2.398-3.602-5.422-3.602-9.065v-9.191c-5.798,7.123-12.835,12.668-21.114,16.642c-8.28,3.975-17.223,5.962-26.823,5.962
		c-11.922,0-22.728-2.982-32.415-8.943c-9.688-5.961-17.307-14.196-22.852-24.713c-5.55-10.515-8.32-22.231-8.32-35.147
		c0-12.917,2.979-24.63,8.941-35.147c5.961-10.514,14.197-18.792,24.714-24.839c10.516-6.042,22.146-9.066,34.898-9.066
		C262.92,119.258,274.47,122.281,284.821,128.324z M272.65,228.672c6.707-4.056,11.962-9.602,15.772-16.642
		c3.807-7.036,5.714-14.941,5.714-23.72c0-8.775-1.907-16.724-5.714-23.846c-3.812-7.118-9.065-12.707-15.772-16.766
		c-6.706-4.056-14.2-6.085-22.479-6.085c-8.281,0-15.772,2.03-22.479,6.085c-6.707,4.06-12.008,9.647-15.896,16.766
		c-3.895,7.122-5.837,15.071-5.837,23.846c0,8.779,1.943,16.684,5.837,23.72c3.889,7.04,9.189,12.586,15.896,16.642
		c6.706,4.06,14.197,6.086,22.479,6.086C258.449,234.758,265.944,232.732,272.65,228.672z"/>
</g>
</svg>
